<svg fill="#938938" height="800px" width="800px" version="1.1" xmlns="http://www.w3.org/2000/svg" viewBox="0 0 512 512">
  <defs>
    <mask id="skull-face">
      <rect width="512" height="512" fill="black"/>
      <path fill="white" d="M375.467,358.4c4.173,0,7.731-3.021,8.414-7.125l8.107-48.597C403.831,289.92,409.6,274.62,409.6,256 c0-84.693-68.907-153.6-153.6-153.6S102.4,171.307,102.4,256c0,18.347,5.922,34.031,17.621,46.677l8.098,48.597 c0.683,4.104,4.241,7.125,8.414,7.125h34.133c6.886,0,8.311,7.27,8.653,9.941l8.533,51.2c0.683,4.113,4.241,7.125,8.414,7.125 h51.2c4.71,0,8.533-3.823,8.533-8.533s-3.823-8.533-8.533-8.533h-8.533V384c0-4.71-3.823-8.533-8.533-8.533 s-8.533,3.823-8.533,8.533v25.6h-18.372l-7.27-43.546c-0.887-8.55-7.381-24.721-25.557-24.721h-26.906l-7.347-44.075 c-0.29-1.749-1.118-3.371-2.381-4.634c-9.805-9.788-14.566-21.768-14.566-36.625c0-75.281,61.252-136.533,136.533-136.533 S392.533,180.719,392.533,256c0,19.78-8.311,30.387-14.566,36.625c-1.254,1.263-2.091,2.884-2.381,4.634l-7.347,44.075h-26.906 c-17.169,0-24.183,15.88-25.481,24.192l-7.347,44.075h-18.372V384c0-4.71-3.823-8.533-8.533-8.533s-8.533,3.823-8.533,8.533 v34.133c0,4.71,3.823,8.533,8.533,8.533h34.133c4.173,0,7.731-3.012,8.414-7.125l8.542-51.226 c0.171-1.015,1.903-9.916,8.644-9.916H375.467z"/>
      <ellipse cx="192" cy="224" rx="34" ry="42" fill="black"/>
      <ellipse cx="320" cy="224" rx="34" ry="42" fill="black"/>
    </mask>
  </defs>
  <path d="M156.1,377.967l-57.344,57.344c-1.784,1.783-2.688,4.267-2.466,6.784s1.553,4.804,3.627,6.255 c6.903,4.796,11.017,12.638,11.017,20.983c0,14.114-11.486,25.6-25.6,25.6s-25.6-11.486-25.6-25.6 c0-2.347,0.427-4.796,1.348-7.706c0.964-3.038,0.154-6.357-2.099-8.619c-2.253-2.244-5.564-3.055-8.619-2.091 c-2.901,0.922-5.342,1.348-7.697,1.348c-14.114,0-25.6-11.486-25.6-25.6s11.486-25.6,25.6-25.6 c8.337,0,16.179,4.122,20.983,11.017c1.451,2.074,3.738,3.405,6.255,3.627c2.517,0.196,5-0.683,6.784-2.466l40.277-40.277 c3.336-3.337,3.336-8.73,0-12.066c-3.337-3.336-8.73-3.336-12.066,0l-33.911,33.911C63.258,387.925,53.197,384,42.667,384 C19.14,384,0,403.14,0,426.667s19.14,42.667,42.667,42.667c0,23.526,19.14,42.667,42.667,42.667 C108.86,512,128,492.86,128,469.333c0-10.53-3.925-20.591-10.812-28.322l50.978-50.978c3.336-3.336,3.336-8.73,0-12.066 C164.83,374.63,159.437,374.63,156.1,377.967z"/>
  <path transform="matrix(-1, 0, 0, 1, 512, 0)" d="M156.1,377.967l-57.344,57.344c-1.784,1.783-2.688,4.267-2.466,6.784s1.553,4.804,3.627,6.255 c6.903,4.796,11.017,12.638,11.017,20.983c0,14.114-11.486,25.6-25.6,25.6s-25.6-11.486-25.6-25.6 c0-2.347,0.427-4.796,1.348-7.706c0.964-3.038,0.154-6.357-2.099-8.619c-2.253-2.244-5.564-3.055-8.619-2.091 c-2.901,0.922-5.342,1.348-7.697,1.348c-14.114,0-25.6-11.486-25.6-25.6s11.486-25.6,25.6-25.6 c8.337,0,16.179,4.122,20.983,11.017c1.451,2.074,3.738,3.405,6.255,3.627c2.517,0.196,5-0.683,6.784-2.466l40.277-40.277 c3.336-3.337,3.336-8.73,0-12.066c-3.337-3.336-8.73-3.336-12.066,0l-33.911,33.911C63.258,387.925,53.197,384,42.667,384 C19.14,384,0,403.14,0,426.667s19.14,42.667,42.667,42.667c0,23.526,19.14,42.667,42.667,42.667 C108.86,512,128,492.86,128,469.333c0-10.53-3.925-20.591-10.812-28.322l50.978-50.978c3.336-3.336,3.336-8.73,0-12.066 C164.83,374.63,159.437,374.63,156.1,377.967z"/>
  <path transform="matrix(1, 0, 0, -1, 0, 512)" d="M156.1,377.967l-57.344,57.344c-1.784,1.783-2.688,4.267-2.466,6.784s1.553,4.804,3.627,6.255 c6.903,4.796,11.017,12.638,11.017,20.983c0,14.114-11.486,25.6-25.6,25.6s-25.6-11.486-25.6-25.6 c0-2.347,0.427-4.796,1.348-7.706c0.964-3.038,0.154-6.357-2.099-8.619c-2.253-2.244-5.564-3.055-8.619-2.091 c-2.901,0.922-5.342,1.348-7.697,1.348c-14.114,0-25.6-11.486-25.6-25.6s11.486-25.6,25.6-25.6 c8.337,0,16.179,4.122,20.983,11.017c1.451,2.074,3.738,3.405,6.255,3.627c2.517,0.196,5-0.683,6.784-2.466l40.277-40.277 c3.336-3.337,3.336-8.73,0-12.066c-3.337-3.336-8.73-3.336-12.066,0l-33.911,33.911C63.258,387.925,53.197,384,42.667,384 C19.14,384,0,403.14,0,426.667s19.14,42.667,42.667,42.667c0,23.526,19.14,42.667,42.667,42.667 C108.86,512,128,492.86,128,469.333c0-10.53-3.925-20.591-10.812-28.322l50.978-50.978c3.336-3.336,3.336-8.73,0-12.066 C164.83,374.63,159.437,374.63,156.1,377.967z"/>
  <path transform="matrix(-1, 0, 0, -1, 512, 512)" d="M156.1,377.967l-57.344,57.344c-1.784,1.783-2.688,4.267-2.466,6.784s1.553,4.804,3.627,6.255 c6.903,4.796,11.017,12.638,11.017,20.983c0,14.114-11.486,25.6-25.6,25.6s-25.6-11.486-25.6-25.6 c0-2.347,0.427-4.796,1.348-7.706c0.964-3.038,0.154-6.357-2.099-8.619c-2.253-2.244-5.564-3.055-8.619-2.091 c-2.901,0.922-5.342,1.348-7.697,1.348c-14.114,0-25.6-11.486-25.6-25.6s11.486-25.6,25.6-25.6 c8.337,0,16.179,4.122,20.983,11.017c1.451,2.074,3.738,3.405,6.255,3.627c2.517,0.196,5-0.683,6.784-2.466l40.277-40.277 c3.336-3.337,3.336-8.73,0-12.066c-3.337-3.336-8.73-3.336-12.066,0l-33.911,33.911C63.258,387.925,53.197,384,42.667,384 C19.14,384,0,403.14,0,426.667s19.14,42.667,42.667,42.667c0,23.526,19.14,42.667,42.667,42.667 C108.86,512,128,492.86,128,469.333c0-10.53-3.925-20.591-10.812-28.322l50.978-50.978c3.336-3.336,3.336-8.73,0-12.066 C164.83,374.63,159.437,374.63,156.1,377.967z"/>
  <path mask="url(#skull-face)" d="M375.467,358.4c4.173,0,7.731-3.021,8.414-7.125l8.107-48.597C403.831,289.92,409.6,274.62,409.6,256 c0-84.693-68.907-153.6-153.6-153.6S102.4,171.307,102.4,256c0,18.347,5.922,34.031,17.621,46.677l8.098,48.597 c0.683,4.104,4.241,7.125,8.414,7.125h34.133c6.886,0,8.311,7.27,8.653,9.941l8.533,51.2c0.683,4.113,4.241,7.125,8.414,7.125 h51.2c4.71,0,8.533-3.823,8.533-8.533s-3.823-8.533-8.533-8.533h-8.533V384c0-4.71-3.823-8.533-8.533-8.533 s-8.533,3.823-8.533,8.533v25.6h-18.372l-7.27-43.546c-0.887-8.55-7.381-24.721-25.557-24.721h-26.906l-7.347-44.075 c-0.29-1.749-1.118-3.371-2.381-4.634c-9.805-9.788-14.566-21.768-14.566-36.625c0-75.281,61.252-136.533,136.533-136.533 S392.533,180.719,392.533,256c0,19.78-8.311,30.387-14.566,36.625c-1.254,1.263-2.091,2.884-2.381,4.634l-7.347,44.075h-26.906 c-17.169,0-24.183,15.88-25.481,24.192l-7.347,44.075h-18.372V384c0-4.71-3.823-8.533-8.533-8.533s-8.533,3.823-8.533,8.533 v34.133c0,4.71,3.823,8.533,8.533,8.533h34.133c4.173,0,7.731-3.012,8.414-7.125l8.542-51.226 c0.171-1.015,1.903-9.916,8.644-9.916H375.467z"/>
</svg>
